<svg xmlns="http://www.w3.org/2000/svg" width="1930.667" height="2133.333" version="1.0" viewBox="0 0 1448 1600"><path d="M693 1.1C633.8 3.7 573.6 14.9 516 34c-18.7 6.2-34.7 12-42.5 15.5-1.6.8-5.9 2.6-9.5 4-32 13.1-78.7 38.2-110.5 59.5-33 22-55 39.1-87 67.4-11 9.8-43.2 42-54.1 54.1-65.1 72.6-113.7 151-150.9 243.5C17.6 587.2-3.5 710.4.9 831c3.3 88.2 17.2 165.1 44.8 248 10.5 31.6 24 64.8 38.4 94.8 4.4 9 7.9 16.5 7.9 16.7 0 .3 7.8 14.7 15.8 29 15.7 28.4 39.8 65.5 59.7 92 3.3 4.4 6.7 8.9 7.6 10 1 1.1 6.8 8.3 13 15.9 17.2 21.1 28 32.9 52.8 57.7 74.1 73.9 157.3 127.6 254.5 164.1 8.9 3.3 18.1 6.6 20.6 7.3 2.5.7 8.3 2.5 13 4 44.7 14 95.2 23.6 146.5 27.7 20.2 1.6 77.1 1.6 97.5 0 37.3-3 83.2-10.4 113-18.4 4.1-1 10.9-2.8 15-3.9s8.6-2.4 10-2.9c1.4-.4 7.9-2.5 14.5-4.6 21-6.5 49.2-17.4 75-28.9 19.4-8.7 55.9-28.3 75.8-40.7 49.5-30.9 89.7-62.7 130.8-103.8 27-26.9 43.6-45.3 60.9-67.5 3-3.9 5.7-7.2 6-7.5.9-.8 14.2-18.9 20.7-28 39.3-55.5 73.8-121 98.1-186 6.4-17.2 13.8-39 17.7-52 3.1-10.3 7.5-25.9 8.4-29.7.5-2.1 2.3-9.2 3.9-15.8 5.4-21.1 10.1-45 14.7-74.5 11.4-73.2 13.2-149.5 5.4-225.5-13.2-128.5-54.7-251.6-121-359.1-47-76.2-108.2-145.2-176.9-199.7-28.4-22.6-59.4-43.6-90-61-19.6-11.2-55.9-29.2-69.9-34.7-3-1.1-7.3-2.9-9.5-4-26.6-12-83.9-29.3-122.1-36.9C816.6 5.9 789.6 2.7 751 1c-24.8-1.1-32.2-1.1-58 .1zm52.4 74.7c12 4.3 15 8.9 14.4 22l-.3 6.7-4-.1c-2.2-.1-8.4-.2-13.7-.3l-9.8-.1v-8.3c0-5.1-.5-8.8-1.2-9.5-1.3-1.3-4.7-1.6-6.5-.4-1.6 1-2.7 19.8-1.8 32.6.6 9 1 10.8 2.6 11.7 1.3.7 2.5.6 3.9-.1 1.7-.9 2-2.1 2-7.3 0-3.4.4-6.8.9-7.6.7-1.1 3.4-1.3 13.5-.9 6.9.3 12.9.8 13.2 1.1 1.2 1.1-1.7 15-3.7 17.9-1.1 1.6-4.4 4.1-7.2 5.6-5 2.6-5.8 2.7-20.2 2.7-14.7 0-15.1-.1-21-3-3.9-2-6.6-4.1-7.8-6.2-2.2-3.9-3.6-16.9-3.7-34V86.1l3.2-3.7c3.4-3.8 9.4-6.9 16.3-8.4 7.1-1.6 24.3-.5 30.9 1.8zm64.9 3.8c13.9 3.6 20.7 9.7 20.7 18.5 0 8.1-4.8 35.8-6.9 39.7-3.1 5.8-11.2 9.2-22 9.2-10.7 0-17.5-1.4-25-5.2-5.2-2.7-6.9-4.2-8.9-7.8-2.2-4.2-2.3-5.1-1.7-15.5 1.5-23.9 2.3-29.3 4.7-32.8 2-2.7 6.1-5.3 10.8-6.8 4.6-1.4 21.9-1 28.3.7zM652.9 82c8.2 4.6 9.1 7.6 11.1 32.9 1.2 15.9.5 19.2-4.7 24.3-4.4 4.3-11.7 7.1-22.8 8.8-12.9 1.9-24.1-.8-28.5-7-3.2-4.6-9.9-39.2-8.6-44.5.8-3.2 7-10.1 10.8-12.1 11.3-5.8 34.3-7.1 42.7-2.4zm-60.1 38.6-.3 33.6-12 2.9c-6.6 1.6-14.3 3.6-17.1 4.4-8.3 2.5-8.4 2.4-13.8-7.8-4.4-8.2-16.8-30.1-21.7-38.2-2.6-4.2-5.9-10.3-5.9-10.8 0-.3 1-.7 2.3-1 1.2-.3 6.5-1.8 11.7-3.2 13.8-3.9 14.9-4.1 15.6-1.9.4 1.1 2.4 5.5 4.4 9.9 2 4.4 5.4 12.4 7.5 17.7 2.2 5.4 4 9.6 4.2 9.5.1-.2-.7-9.7-1.9-21.1-1.7-17.3-1.9-20.9-.7-21.6.7-.5 4-1.4 7.3-2 3.4-.6 8.8-1.7 12.1-2.5 3.3-.7 6.6-1.4 7.3-1.4 1-.1 1.2 6.9 1 33.5zm267.5-31.2c5.9 1.3 11.1 2.7 11.4 3 .9.9-.5 7.6-8.2 39.7-1.4 5.9-2.5 10.9-2.5 11.1 0 .3 3.2 1 7 1.7 7.8 1.4 7.8 1.3 5.9 10.1-1 4.5-1.4 5.1-3.3 4.7-4.2-.8-35.1-7.9-36.3-8.3-1.8-.5-1.7-2 1.6-18.4 1.6-8 4.2-21.6 5.8-30.2 3.3-18.4 1.4-17.1 18.6-13.4zm59.2 14c11 2.6 22.3 9 26.3 14.9 4.5 6.7 4.5 8.4-.5 22.9-4.8 14.3-9.4 25.1-11.5 27.1-4.1 4.1-7 5.1-15.2 5-17-.2-35.7-9.9-38.5-20-.7-2.6-.6-5.7.4-11.2 2.1-10.7 7.9-30.5 9.9-33.7 4-5.9 16.1-8 29.1-5zm-391.9 34.2c5.1 16.4 9.2 30.4 9 30.9-.5 1.5-22.7 8.8-23.7 7.8-.4-.4-4-9.6-7.9-20.3-11-30.4-14.3-40.1-13.7-40.6 1.4-1.4 25.3-9.1 26-8.5.4.5 5.1 14.3 10.3 30.7zm-40.5-14.1c1 2.7 1.9 5.5 1.9 6.1 0 .6-3.1 2.4-7 3.9-3.8 1.5-7 3.2-7 3.6 0 .4 4 10.8 8.9 23.1 5 12.2 9.1 22.9 9.3 23.6.3 1.6-22.2 11.6-23.3 10.4-.4-.4-5.3-10.8-10.9-23.2-5.6-12.4-10.3-22.6-10.5-22.8-.1-.2-3.2 1.1-6.7 2.7-3.6 1.7-7 3.1-7.6 3.1-.8 0-6.2-10-6.2-11.5 0-.2 3-1.8 6.8-3.5 21.9-10.5 46.8-20.9 49.1-20.7.7.1 2.2 2.4 3.2 5.2zm483.5-.1c3.2 1.3 10.7 4.4 16.5 7l10.6 4.7-2.3 11.7c-1.2 6.4-2.5 12.9-2.9 14.4-.4 1.6-.5 2.8-.2 2.8s2.9-3.3 5.8-7.3c2.8-3.9 6.7-9.1 8.6-11.5l3.5-4.2 14.6 7.6c8.1 4.2 15.5 8.3 16.4 9.3 1.7 1.5 1.3 2.5-6.6 16.6-4.5 8.3-11.5 21-15.5 28.2-4 7.3-7.6 13.3-8 13.3-1 0-17.2-8.8-18.4-10-.5-.4 2.8-8.1 7.2-17 4.5-9 7.9-16.5 7.7-16.8-.4-.4-11.9 13.7-19.6 24.1-1.9 2.5-4.1 4.7-4.8 4.7-1.7 0-12-5-13.1-6.4-.4-.6.7-7.7 2.5-16.1 1.8-8.3 3.6-16.8 3.9-19l.6-4-1.5 3c-.8 1.6-4.3 9.3-7.6 17-3.4 7.7-6.4 14.3-6.8 14.7-1 1-20.2-7.4-20.2-8.8 0-.7 1.3-4.6 2.9-8.6 3.3-8.3 18.4-47.4 19.4-50.1.8-2.1.2-2.2 7.3.7zM425 153.5c2.7 1.4 6.6 7.5 8 12.6 1.1 3.6 0 6.9-3.1 9.8l-2.3 2.1h5.1c3.4 0 5.7.5 6.8 1.6 2.3 2.3 12.7 23.3 12 24.4-.3.4-4.9 3.1-10.2 6-7.9 4.2-9.8 4.9-10.9 3.8-.7-.7-3.5-5.6-6.4-10.8-2.8-5.2-5.7-10.1-6.4-10.8-1.4-1.4-6.6-.7-6.6 1 0 .5 3 6.3 6.6 12.9 3.6 6.5 6.4 12.4 6.2 12.9-.4 1.3-19.7 13-21.3 13-.7 0-1.6-.8-1.9-1.7-.4-.9-7.9-13.3-16.7-27.6-8.9-14.2-15.9-26-15.7-26.2 1.5-1.5 26.1-16.1 32.6-19.4 12.3-6.2 17.6-7 24.2-3.6zm634.2 14.6c9.1 5.4 27.1 17.7 31 21.2 2 1.8 4.8 5.1 6.2 7.2 4.3 6.4 3.1 15.9-2.8 21.4-2.6 2.5-4.3 2.7-10 1.6l-3.9-.8 2.6 3.5c3.7 4.8 3.6 9.7-.4 15.9-4.7 7.3-9.2 10.9-13.8 10.9-4.6 0-9.5-2.5-26.1-13.4-6.9-4.5-14.4-9.4-16.7-10.9-2.4-1.5-4.3-3.3-4.3-4.1 0-1.1 12.5-23.6 28.6-51.4 1.4-2.3 2.9-4.2 3.4-4.2s3.3 1.4 6.2 3.1zm-695.4 24.5c2.3 1.5 16.9 23 21.2 31.2 4.9 9.4 1.8 18.6-9.7 29.2-9.2 8.4-18.7 13-26.7 13-5.3 0-6.6-.4-9.7-2.9-1.9-1.6-5.5-5.6-8-8.8-2.4-3.2-4.6-6-4.9-6.3-1.3-1.2-9.8-12.7-10.8-14.7-1.8-3.3-1.4-11.3.7-15.8 3.4-7.4 15.1-18.3 25.1-23.3 8.5-4.3 17.7-4.9 22.8-1.6zm762.4 23c5.1 4.2 9.9 8.2 10.7 8.9 1.2 1.2.2 2.8-6.5 11.2-4.3 5.5-13.3 16.7-19.9 25.1-6.6 8.3-12.5 15.1-13.2 15.1-1 .1-14.1-9.8-19.1-14.4-1.2-1 .8-4.3 10.9-18.1 21.9-30.1 25.9-35.4 26.8-35.4.5 0 5.1 3.4 10.3 7.6zm-818.1 21.1c1.8 1.5 5.2 5.4 7.6 8.6 7 9.5 5.8 14.2-6.6 26.9l-6.5 6.8 3.5 3.7c9.5 10 13.9 14.8 13.9 15.3 0 .3-4.2 4.8-9.4 9.9l-9.4 9.4-20.6-21c-11.4-11.6-21.6-22.3-22.7-23.7l-2.1-2.6 14.1-14c21.6-21.5 30.3-25.9 38.2-19.3zm845.4 5.4c15.3 5.7 33.5 27.4 33.5 40 0 4.2-3.1 9.7-8.4 14.8l-4.6 4.5-4.9-5.5c-2.7-3-6.9-7.6-9.5-10.2-5.2-5.4-5.1-5.8 1-11.7 5.2-5.1 5.8-6.7 3.9-9.6-3.5-5.3-6.1-3.3-30.2 24.5-2.5 2.9-3 6-1.1 7.9 2.4 2.4 5.6 1.3 10.1-3.8l4.5-5 6.8 7.1c3.8 4 7.9 8.2 9.2 9.5 1.2 1.3 2.2 2.9 2.2 3.7 0 1.5-5.1 6.5-9.2 9-7.4 4.6-20.1-.3-31.5-12-13.1-13.6-16.6-22.6-12.4-31.8 1.6-3.7 17.8-24.5 22.3-28.8 5.2-5.1 9.9-5.8 18.3-2.6zm-899.3 40.6 4.7 4.8-5.9 6.5c-3.3 3.6-5.9 6.9-6 7.5 0 1.3 6.1 7.5 7.5 7.5.6 0 3.5-2.7 6.4-6.1l5.4-6.1 4.3 4.3c2.4 2.4 4.4 4.6 4.4 4.9 0 .3-2.3 3-5 6s-5 6-5 6.6c0 .7 2.1 3 4.6 5.2l4.5 4.1 6-6.9c3.3-3.9 6.4-7 7-7 1.2 0 8.9 7.2 8.9 8.4 0 .5-2.8 4.1-6.2 8-3.5 3.9-9.9 11.7-14.3 17.3-4.4 5.6-8.3 10.2-8.7 10.3-.7 0-31.3-25.9-39.8-33.6-1.9-1.8-4.7-4.2-6.2-5.4-1.6-1.2-2.8-2.6-2.8-3.1 0-1.5 29.6-37.6 31-37.8.3-.1 2.7 2 5.2 4.6zm955.9 16.9c4.6 5.8 8.4 11.2 8.4 12.1 0 .9-3.4 4.6-7.5 8.1-26.4 22.9-31.1 27.4-30.8 29.5.8 5.6 5.9 2.2 38.3-26 2.7-2.4 5.5-4.3 6.1-4.3.7 0 2 1.2 2.9 2.7 1 1.6 4.1 6 6.9 9.8 2.8 3.9 5.7 8.1 6.4 9.3 1.5 2.7 2.2 2-17.7 17.5-17.7 13.8-23.8 17.7-27.4 17.7-13.1 0-34.6-26.3-34.7-42.6 0-5.6 1.8-8.7 9.2-15.6 2.3-2.3 10.1-9.7 17.2-16.5 7-6.7 13.2-12.3 13.6-12.3.4 0 4.5 4.8 9.1 10.6zm-658.6 7.9c16.7 5.5 22.5 16.4 22.5 42.4V363h-33v-14.4c0-17.1-.5-20.5-3.4-21.5-3.5-1.3-7.3.6-8 4.1-.3 1.7-.6 20.2-.6 41.2 0 41.9.2 42.9 5.6 43.4 5.2.5 5.9-1.4 6.2-17.5l.4-14.3H574v11.1c0 11-1.6 20.3-4.5 25.9-2 3.9-8.1 9.5-13.6 12.4-14.2 7.8-40.3 4.9-50.8-5.5-8.3-8.2-9.3-15.6-8.9-62.1.3-34.4.4-36.5 2.4-40.9 1.2-2.5 3.6-6.2 5.4-8.3 3.9-4.3 13.4-9.5 19.9-10.7 6.6-1.2 21.8-.3 27.6 1.6zm239.7.5c8.1 3 15.1 9.6 17.9 16.8 1.8 4.7 2.3 8.4 2.7 21.9l.5 16.3H779v-15.4c0-8.5-.4-16.7-1-18.1-.9-2.3-1.5-2.6-4.7-2.3-6.3.5-6.3.6-6.3 44.3 0 43.6.1 44 6 44 5.1 0 6-2.5 6-18.3V384h33v9.7c0 11.9-1.4 21.3-4 26.3-2.7 5.4-11.2 12.6-17.6 15-11 4.1-27.7 3.6-38.4-1.1-5.4-2.4-11.5-8-14-13-3.4-6.5-4.2-18.7-3.8-56.1.3-35 .3-35.3 2.7-40.2 4.7-9.6 12-15.3 23.1-18.2 7.8-2 23.8-1.2 31.2 1.6zm109.8-2c10.2 1.9 19.9 8.1 24.4 15.3 2.6 4.2 4.6 15 4.6 25v8.7l-16.2-.2-16.3-.3-.7-12.9c-.3-7.1-1.1-13.3-1.6-13.8s-2.5-.8-4.3-.6c-3.3.3-3.4.4-4.2 6.3-.4 3.3-.6 22.5-.5 42.6.3 39.8.3 39.9 5.9 39.9 4.3 0 5.2-2.9 5.7-17.3l.4-12.7H890.9l.3-9.8.3-9.7 19.3-.3 19.2-.2v70h-20l-1.7-3.8c-1-2-1.8-3.9-2-4.1-.1-.2-2.3 1.5-4.8 3.7-13.8 12.2-38.2 4.8-45.8-13.8-2.2-5.4-2.2-6.4-2.2-45.5 0-29.7.3-41.3 1.3-45.1 2.5-9.5 13.8-19.3 25.1-21.5 5.5-1 15.2-1 21.1.1zm-226 4.5c7.1 2.2 14.2 9.1 16.1 15.5 1.1 3.5 1.4 14.3 1.4 48 0 43 0 43.6-2.3 48.4-4.2 9.2-8.9 11.4-26.2 12.6-6.9.5-20.5.9-30.2 1H616V307.8l26.8.4c21.9.4 27.7.8 32.2 2.3zm-454.3 23.2c3.6 2 26.3 20.6 30.6 25.1 1.5 1.6 3.2 4.2 3.6 5.8 1.5 5.5-.6 10.1-16.7 35.7-1.7 2.9-5 8.2-7.2 11.9-2.3 3.8-4.6 6.8-5.2 6.8-1.2 0-50.9-32.9-52-34.4-.9-1.3 3.4-8.8 16.1-28.6 7.4-11.5 12.7-17.8 18-21.2 5.2-3.2 8.3-3.5 12.8-1.1zM1257 365.6c3.9 6.4 7 12.3 6.8 13.1-.3 1.5-11.3 9.4-31.8 23-4.7 3-8.7 5.7-8.9 5.9-.2.2 1.3 3.2 3.3 6.8 2 3.5 3.6 7 3.6 7.8 0 1.2-3.7 4.1-8.4 6.6-2 1-2.9-.2-13.9-19.8-1-1.9-3.2-5.4-4.8-7.8-1.6-2.4-3.5-5.6-4.3-7.1l-1.5-2.8 25.6-19.1c14-10.6 25.9-19 26.3-18.7.5.3 4.1 5.7 8 12.1zm15.4 26.8c7.4 12.6 26.6 53.4 26.6 56.5 0 1-2.1 2.7-5.4 4.3l-5.4 2.7-3.8-8.5-3.9-8.4-21.5 12c-11.8 6.6-21.8 12-22.2 12-.7 0-12.8-24-12.8-25.3 0-.3 9.3-6.4 20.6-13.4 11.4-7 20.9-13.3 21.1-14 .3-.7-1.1-4.3-3.1-8s-3.6-7.1-3.6-7.5c0-.9 8.2-6.7 9.7-6.8.6 0 2.3 2 3.7 4.4zm-666.9 30.1v13h-23l-.3-12.4c-.2-9.3.1-12.7 1-13.3.7-.5 6-.7 11.8-.6l10.5.3v13zm116.9-12.9 2.7.6-.3 12.7-.3 12.6h-23l-.3-13.1-.3-13.1 9.5-.2c5.1-.1 10.6.1 12 .5zm121.6 13v13.5l-11.7-.3-11.8-.3-.3-11.9c-.1-6.6-.1-12.5.2-13.2.3-.9 3.8-1.3 12-1.3H844v13.5zm-675.6 4.8c1.8.7 4.3 2.6 5.5 4.2 2 2.5 2.2 3.7 1.7 8l-.6 5.1 4.1-3.9c5.1-4.8 8.3-4.9 15.8-.4 14.1 8.6 14.1 11.3.4 44.6-3 7.4-6.1 15.1-6.8 17-.7 1.9-1.9 5-2.5 6.7-.7 1.8-1.6 3.3-2 3.3-.8 0-11.4-4.6-42.5-18.4-13.6-6.1-14-6.3-13.8-9.2.1-1.6.9-4.5 1.7-6.4.8-1.9 3.3-8.5 5.7-14.5 4.9-12.9 11.1-25.6 14.8-30.4 5.1-6.7 11.4-8.7 18.5-5.7zm1137.1 35.8c1.5 4 4 10.8 5.6 15l2.9 7.8-2.3 1.4c-1.2.8-8 4-15.2 7.1-31.6 13.8-31 13.5-30.1 16.9.4 1.7 1.3 2.6 2.7 2.6 1.9 0 13-4.1 20.4-7.5 8.4-3.9 25-10.5 26.5-10.5 1.6 0 3.3 4.7 9.1 24.7 1.7 5.9 1.7 6.4.1 7.2-.9.5-11.2 4.3-22.8 8.5-26 9.4-27.6 9.5-34.2 2.8-7.6-7.5-14-23.3-16.3-39.7-1.3-9.6-.1-15.6 4-19.3 2.5-2.4 43.5-23.9 45.7-24.1.6-.1 2.3 3.2 3.9 7.1zm-202.7 77 .2 43.8H976.8c-69.5 0-126.8-.4-127.4-.8-1.3-.9-4.4-7.5-4.4-9.4 0-1.6-6.6-11.4-10.2-15.3-3.3-3.4-11-7.2-17.6-8.6-11.3-2.3-32.3.5-42.7 5.8-10.1 5.2-20.3 13.2-24.5 19.3-1.4 1.9-3.5 4.6-4.7 6-1.3 1.4-2.3 2.7-2.3 3 0 .3-92.1.3-204.7 0l-204.8-.5-.3-42.5c-.1-23.4 0-43.1.3-43.8.4-1 75.7-1.2 384.7-1l384.3.3.3 43.7zm-973-38.3c3.7 1.6 13 5.4 20.7 8.6 18.5 7.6 21 9.2 23.2 14 5.6 12.4-2.9 47.6-14.2 58.9l-3.8 3.9-6.6-.6c-3.6-.4-10.2-1.7-14.6-3.1-4.4-1.3-13.5-3.9-20.3-5.7l-12.2-3.4.6-3c2.5-12.8 7.1-29.8 8.1-30.2.7-.3 11.4 2.9 23.7 7.1 12.3 4.2 23.3 7.6 24.5 7.6 2.6 0 4-4.6 2-6.5-.8-.7-6.8-3.1-13.4-5.4-6.6-2.3-14.2-5.1-17-6.1-2.7-1-7.8-2.8-11.2-4-4.1-1.5-6.3-2.8-6.3-3.8 0-1.2 6.4-23.7 8.5-30 .6-1.6.7-1.6 8.3 1.7zM1331 542.5c.5 1.3 1.9 6.4 3 11.2 1.1 4.9 2.5 10.6 3 12.8 2.6 10.1 5 26.6 5 34 0 13.7-5.2 20.5-15.8 20.5-4.8 0-8.6-2.9-9.8-7.4-.9-3.8-2.4-3.2-2.4.9 0 5.2-2.4 9.2-6.2 10.4-3 .9-21.1 5.1-22.2 5.1-.3 0-.8-1.7-1.1-3.8-.4-2-1.6-8.6-2.7-14.6-1.5-8.3-1.7-11-.8-11.6.7-.4 5.1-1.8 9.9-3 14.3-3.7 15.1-4.2 15.1-8.9 0-2.6-.5-4.1-1.2-4.1s-6.9 1.6-13.7 3.5c-6.8 1.9-12.7 3.2-13.2 2.9-.5-.3-.9-1.3-.9-2.2 0-.9-1.4-7.5-3.1-14.5-1.7-7-2.9-13-2.6-13.3.2-.3 10.1-3.8 21.8-7.8 11.8-4.1 24.6-8.5 28.4-9.9 8.8-3.2 8.4-3.2 9.5-.2zm-550 38.4c0 .6-.4 1.3-1 1.6-.5.3-1-.1-1-.9 0-.9.5-1.6 1-1.6.6 0 1 .4 1 .9zm60.1 6.2c1.4.7 1.8 1.6 1.4 3-.4 1.1-.2 1.9.4 1.9.6 0 1.1 1.3 1.1 2.8 0 3.5-3.5 6.8-7.4 7-1.6.1-3.4.6-4 1.1-4.1 3.2-12.6 1-12.6-3.3 0-8.1 13.9-16.4 21.1-12.5zm11.9 2c0 .6-.4.7-1 .4-.5-.3-1-1.1-1-1.6 0-.6.5-.7 1-.4.6.3 1 1.1 1 1.6zm-697.8 7.2c2.6.7 4.9 1.5 5.2 1.8.3.3-.5 6.8-1.9 14.5-1.3 7.6-3.1 18.8-4 24.8-.8 6-1.7 11.2-2 11.4-.4.4-19.2-2.6-51.3-8.3-4.6-.8-8.8-1.8-9.3-2.1-.6-.3-.8-1.8-.5-3.2.2-1.5 1.5-9.3 2.7-17.5 1.8-11.9 2.5-14.7 3.8-14.7.9 0 11.6 2.3 23.8 5.2 12.3 2.8 22.5 4.9 22.8 4.7.2-.3 1.1-3.9 2-8 2.3-11.3 1.5-10.5 8.7-8.6zm663.8 5.2c0 1.6-1.7 1.9-4.4.9-2.6-1-1.8-2.4 1.4-2.4 2 0 3 .5 3 1.5zm18 13.5c2.7 2.7 2.5 4-.4 4-3.7 0-5.6-1-5.6-2.9 0-3.6 3-4.1 6-1.1zm-118.4 16c-1.4 2.2-2.6 5-2.6 6.3 0 1.4-.8 3.5-1.9 4.8-2.3 2.9-6.7 13.5-8.7 20.7-.8 2.9-2.4 7.1-3.5 9.2-1.3 2.5-2.3 6.8-2.6 11.7-.4 5.4-1.2 8.5-2.4 10.2-1.2 1.5-1.9 3.9-1.8 6.5 0 2.2.3 3.5.6 2.8.7-1.7 3.3-1.5 3.3.3 0 1.9-3.6 9.1-5 10-1.3.8-1.3 4.5 0 4.5.6 0 1 .7 1 1.5s.7 1.5 1.5 1.5 1.5.9 1.5 1.9c0 1.8-.3 1.7-2.9-.7-1.7-1.5-3.4-3.9-4-5.4l-1-2.8-177.3-.2-177.3-.3v-86L528 627c105.9-.3 192.7-.4 192.9-.3.2.2-.8 2.1-2.3 4.3zm386.4 39.5V714H996.8c-84-.1-108.7-.3-109.9-1.3-.9-.7-4-4.4-6.9-8.2-3-3.9-7.1-9-9.2-11.4-2.1-2.4-5.3-6.7-7.2-9.5-1.9-2.9-6.6-9.2-10.5-14.1-4.7-6-7.3-10.2-7.6-12.5-.4-1.9-1.8-5.9-3.2-8.8-1.5-3.3-2.7-7.9-3-11.6-.9-10.6-16-9.5 134.2-9.6H1105v43.5zm220.5-32.8c13.2 1.4 24.1 2.6 24.1 2.6.5.6 3.6 32.3 4.1 42.4.4 8.9.3 12.3-.5 12.3-.7 0-5.1 1.8-9.8 4.1-4.8 2.2-10.8 4.8-13.3 5.9-2.5 1-11.3 4.5-19.5 7.9-8.2 3.4-15.4 6.1-16.1 6.1-.9 0-1.4-4.2-2-14.8-.4-8.1-.8-15.8-.9-17.1-.1-2 .7-2.7 4.9-4.1 5.5-1.8 6.3-3.7 5-10.7-.6-3.2-.7-3.3-5.5-3.3-2.7 0-5.2-.5-5.5-1.1-.6-.9-4.5-29.2-4.5-32.7 0-1.6 2.6-1.4 39.5 2.5zM115.4 656c.5.5.3 8.1-.5 18.2l-1.4 17.3h-17l-.3 5.1c-.2 3.3.2 5.4 1 6.1 1.3 1.1 24.8 3.3 34.5 3.3 5.6 0 6.3-.7 6.3-6.5 0-4.2-1.3-5.2-8.5-6.2l-6-.8.3-8c.3-8.6 2.1-26.8 2.8-27.4.5-.6 9.5 1.9 13.1 3.6 7.1 3.3 11.1 19.6 9.9 40.1-1.2 21.6-5.7 35.6-12.6 39.6-3.2 1.9-5.1 2.1-21.5 2.1-15.6 0-18.5-.2-20.8-1.8-7-4.5-11.4-22.4-10.4-42.2 1.2-24.2 6.8-40.1 15.3-43.3 3.1-1.2 14.3-.6 15.8.8zM697 761.9c-.1 3.8-.7 7.6-1.5 9.1-2 3.5-2 8.4 0 7.6 2.8-1 1.6 3.7-2.5 10.4-2.2 3.6-4 7.6-4 9 0 2.3.2 2.2 2.5-1.3 2.6-3.8 5.3-5.1 4-2-.4 1-1.1 3.1-1.5 4.8-.4 1.6-1.4 4.4-2.3 6.2-2 3.7-1.3 9.7.9 8.9.8-.3 1.4 0 1.4.7 0 .8.4.7 1-.3 1.5-2.4 2.4-.2 1 2.5-1.1 2.1-1.2 3.5-.2 6.9 1.6 6-.3 17.2-2.9 17.9-1.1.3-82.4.4-180.7.4l-178.7-.2-.3-42.5c-.1-23.4 0-43.1.3-43.8.4-1.1 33.5-1.3 182-1.1l181.5.1v6.7zm405.5 37.1v43.5l-33.5.3c-18.4.2-52.9.1-76.6-.3l-43.2-.7-4.1-10.8c-2.3-5.8-4.1-11.8-4.1-13.2 0-1.3-1.8-6-3.9-10.4-2.6-5.3-4.3-10.4-5.1-15.3-1.2-8.2-3-12.6-9-21.6-2.2-3.3-4.3-6.7-4.6-7.5-.3-.8-1-2.3-1.5-3.2-2.4-4.6-7-4.4 102.6-4.3h83V799zm-443.9 90.2c-1.4 1.8-3.7 4.9-5.1 6.9-2.9 4.4-5.9 6.7-15.1 11.3-5.1 2.6-9.5 6.2-16.9 13.6-9.3 9.4-21.1 19-23.3 19-2.1 0-14.7 13.8-20.7 22.7-.5.8-2.2 2.9-3.7 4.5-1.6 1.7-2.8 3.5-2.8 4.2 0 .6-.9 2.9-1.9 5.1l-1.9 4 .5-3.7.6-3.8-116.4-.2-116.4-.3-.3-42c-.1-23.1 0-42.6.3-43.2.3-1 33.9-1.3 163.1-1.3h162.7l-2.7 3.2zm446.4 40.3V973H962.8l.5-2.3c2.4-9.9 3.8-20.8 3.3-26.6-.3-3.6-.5-14.1-.5-23.3.1-12-.4-18.2-1.4-22-1.4-4.7-2.1-9.8-1.8-12.1.1-.4 32.1-.7 71.1-.7h71v43.5zm-588.6 184c.3.9-.1 1.8-1 2.2-1.9.7-2.6 0-1.8-2.1.8-2 2-2.1 2.8-.1zm169.4 69.8c.6.7.8 3.1.5 5.4-.7 5.3-4.2 8.1-7.9 6.4-3.2-1.4-3-3.2.8-8.6 3.3-4.7 4.8-5.4 6.6-3.2zm-13.1 10.2c1.8 1.1 3.4 2.9 3.5 4 .2 1.1 1.2 2.1 2.4 2.3 1.1.2 2.8 1.6 3.7 3.2 1.9 3.2 4.7 3.1 4.7 0 0-2.5 2-3.6 3.1-1.9.5.8.9 2.7.9 4.4 0 1.8 1.1 4 2.9 6 1.6 1.6 3.6 4.8 4.4 7 .8 2.2 1.8 4.8 2.2 5.7.4 1 .3 1.8-.3 1.8-.5 0-2.4 1.3-4.2 3-1.8 1.6-3.7 3-4.2 3s-2.2.9-3.8 2l-2.8 2-1.4-2.3c-.8-1.2-2.7-6.1-4.2-10.9-2.4-7.4-3.3-9-6.4-11.2-2.1-1.3-5-2.8-6.5-3.2-1.6-.3-3.1-1.3-3.4-2-.5-1.5 4.8-15.6 5.7-15.1.3.1 1.9 1.1 3.7 2.2zm-164.9 3.4c.3.8-.1 1.2-.9.9-.7-.2-1.5-1-1.7-1.7-.3-.8.1-1.2.9-.9.7.2 1.5 1 1.7 1.7zm177.6 41.7c2.9.7 7.6-1.2 7.6-3 0-1.6 5.3-3.2 7-2.1 1.8 1.1 1.1 2.7-.9 2-1.7-.5-2 .2-2.7 8.2-.4 4.8-.7 10.8-.8 13.3-.1 5.2-3.2 13.6-5.2 14.4-1 .4-1.3-.5-1.3-3.2.1-2-.1-6.5-.3-10-.3-3.4-.1-6.2.4-6.2.4 0 .8-1.1.8-2.5s-.4-2.5-.9-2.5-1.2-.9-1.6-1.9c-.3-1-1.8-2.2-3.3-2.6-1.5-.4-3.5-1.5-4.5-2.6-1-1-2.9-1.9-4.3-1.9h-2.5l2.3-2.3 2.3-2.4 2.8 2.4c1.6 1.2 3.8 2.6 5.1 2.9zm31.1 13.5c1 1.5-.1 2.2-2.4 1.4-1.2-.3-1.9-1.1-1.6-1.6.8-1.2 3.2-1.1 4 .2zm3.6 3.2c-.1 1.2-1.5.9-1.9-.4-.3-.6.1-1 .8-.8.6.3 1.1.8 1.1 1.2zm22.1 12.4c.4.2.5 1 .2 1.8-.5 1.2-1.2 1.2-4.7-.2-6.4-2.5-6.9-3.6-1.2-2.8 2.8.4 5.3.9 5.7 1.2zm7.8 7.3c0 .5-.4 1-1 1-.5 0-1-.5-1-1 0-.6.5-1 1-1 .6 0 1 .4 1 1zm5.7 1.6c-.3.3-1.2.4-1.9.1-.8-.3-.5-.6.6-.6 1.1-.1 1.7.2 1.3.5zm7.3 4.6c0 1.3-2.3.5-2.8-1-.2-.7.2-1 1.2-.6.9.3 1.6 1.1 1.6 1.6zm288.2 74.5c3.6 7.6 13.1 27.1 21.1 43.3 8.8 18 14.1 29.9 13.6 30.6-.8 1-20.1 11.4-21.2 11.4-.8 0-7.1-6.3-19.1-19.3-5.5-5.9-10.1-10.5-10.3-10.3-.3.2 2.4 7.1 6 15.3 8 18.5 9.1 21.3 8.5 21.8-.2.3-5.1 2.7-10.9 5.4-7.8 3.7-10.7 4.6-11.6 3.8-.6-.7-3.6-7.5-6.6-15.2-14.9-37.9-19.3-49-23.8-60.2-2.7-6.8-4.9-13-4.9-13.8 0-1.6 16.5-9.8 18.5-9.3.5.2 7.2 6.9 14.8 15 7.7 8.2 14.1 14.8 14.4 14.8.8 0-.8-4-5.7-14.4-7.1-15-10.3-22.6-9.9-23 1-.9 18.5-9.5 19.4-9.5.6-.1 4 6.1 7.7 13.6zm-637.1-6.1c16.1 4.7 27.9 17.3 27.9 29.8 0 5.4-1.7 12.6-4.4 18.8-1.8 4.3-.5 4.5-16.1-2.6-5.5-2.5-10.1-4.9-10.3-5.4-.1-.5.8-3.5 2.2-6.6 4.2-9.4 4.7-12.2 2.6-14.1-3.6-3.3-4.4-2.1-16.6 25-3.6 8.2-7.8 17.4-9.1 20.4-4.8 10.4-5.3 12.6-3.6 15.1 2.9 4.1 5.4 2.3 10.3-7.3l4.4-8.9-2.2-1.7-2.3-1.7 3-6.7c1.7-3.7 3.2-6.7 3.4-6.7 1.4 0 28.2 13.1 28.5 13.9.2.6-1.5 5.9-3.8 11.8-10.4 27-14.4 36.3-15.6 36.3-.7 0-4.5-1.6-8.6-3.5-6.5-3.1-7.4-3.9-7.8-6.8-.4-2.2-1-3.1-2-2.8-.8.2-3.8.6-6.7.9-9.6.8-21.2-6.7-26.2-17.2-1.9-3.9-2.3-5.9-1.9-12 .3-7.1.7-8.1 13-32.7 12.8-25.7 17-32.2 21.7-34.1 7.6-3.1 12.8-3.4 20.2-1.2zm61.2 29.1c3.7 1.4 6.7 3.1 6.7 3.7 0 .6-5.3 17.1-11.9 36.6-14 41.8-13.6 40.4-11.6 42.4 3.4 3.3 5.1.1 12.6-22.9 7.6-23.4 16.7-51.2 17.4-53.2.3-.9 3.9 0 12.7 3.1 10.3 3.6 12.2 4.7 12 6.2-.3 1.9-8.6 31.1-16.1 57.1-5.1 17.5-6.2 20.1-9.8 23.7-6.2 6.4-15.9 8.2-27.6 5.1-8.6-2.2-14.3-5.3-20.4-10.9-6.5-5.9-9.2-11.2-9.3-17.7 0-6.1 1.1-9.2 26.9-77.1l1-2.8 5.3 2.1c2.9 1.2 8.3 3.2 12.1 4.6zM983 1373c0 .9 11.6 31.8 23.7 63 2.5 6.3 5.7 15.1 7.3 19.5l2.8 7.9-7.4 3.3c-9.1 4-20.2 7.9-20.6 7.3-.3-.3-2.5-6.8-5.1-14.5-2.5-7.7-9.4-27.9-15.2-44.9-5.8-16.9-10.5-31.4-10.5-32.1 0-.6 1.7-1.9 3.8-2.8 2-.9 6.9-2.9 10.7-4.6 7.3-3.2 10.5-3.8 10.5-2.1zm-42.3 18.5c6.7 2 9.4 4.3 13 11.2 3.3 6 8.8 22.1 8 22.9-.7.7-23.5 8.4-25 8.4-.7 0-2.2-3.6-3.7-8.8-1.3-4.8-3-10.4-3.8-12.5-1.3-3.4-1.8-3.8-4.6-3.5-2.7.3-3.1.7-3.4 3.6-.2 1.8 1.3 9.2 3.2 16.5 2 7.3 4.3 15.9 5.2 19.2.9 3.3 3.1 10.5 4.8 16l3.1 10h7l-.2-6c-.1-3.3-1.1-8.7-2.2-12-1-3.3-1.6-6.3-1.3-6.7.4-.4 5.8-2.5 12.1-4.7 10.5-3.8 15.1-4.9 15.1-3.6 0 .2 1.1 4.8 2.5 10.2 1.4 5.4 2.5 10.9 2.5 12.3 0 15.8-19.5 30-41.4 30-18.1 0-21.6-5-31.2-45.5-5.4-22.8-6.3-34.4-3.1-40.2 7.2-13.3 28.1-21.3 43.4-16.8zM550 1403.1c8.5 2.2 15.7 4.2 15.9 4.5.3.2-.1 10.2-.7 22.2-.7 11.9-1.5 34.2-1.9 49.5-.3 15.3-.9 28-1.3 28.2-.4.3-4.1-.4-8.1-1.4-4.1-1-10.3-2.5-13.8-3.2l-6.3-1.4.7-7c.4-3.8.8-7.8.8-8.9.2-1.4-.9-2.2-4.3-3.2-2.4-.7-4.7-1.1-5-.8-.2.3-1.7 3.8-3.1 7.7-2.6 6.9-2.8 7.2-5.7 7.1-3.3-.2-24.2-6.2-25.5-7.4-.7-.6.2-3.2 5.6-15 5.9-13 22.6-51.4 28.7-65.8 3.9-9.1 4.6-10.3 6.4-9.8 1.2.4 9.1 2.5 17.6 4.7zm323.6 7.1c1.1 3.6 23.1 59.3 27.4 69.6 2.2 5.1 4 9.5 4 9.7 0 .3 1 2.6 2.1 5.1 1.3 2.6 1.8 4.9 1.3 5.4-.8.7-15.2 4.4-25 6.5l-3.1.6-2.1-7.7c-1.2-4.3-2.5-8.1-2.9-8.4-.4-.4-2.8-.2-5.3.4l-4.4 1.1.2 6c.2 3.3.5 7.2.8 8.7.5 2.5.2 2.7-4.8 3.7-12 2.4-23.9 4.3-24.3 4-.2-.2-.5-22.9-.6-50.4l-.2-49.9 9.4-1.7c5.2-1 12.1-2.4 15.4-3.2 9-2.2 11.2-2.1 12.1.5zm-264.6 5.9c22.1 4.3 27.3 7 30.6 15.6 2.1 5.3 1.6 15.3-2.1 49.3-2 17.8-3 23.4-4.8 27-4.5 9.1-11.7 10.5-35.2 6.5-20.2-3.3-28.5-5.1-29.5-6.1-.5-.5-.5-2.9 0-5.4.8-4.4 2.2-12 7.4-40 1.4-7.4 3.9-21.4 5.6-31 1.8-9.6 3.4-18.1 3.6-18.9.5-1.6 1.9-1.4 24.4 3zm201 5.8c6.6 3.4 9.7 7.3 11.9 14.9 2.4 8 4.4 22.3 3.4 23.3-.5.4-6.4 1.5-13.2 2.4-14.2 2-14.1 2.1-14.1-6.4 0-8.4-2-18-3.9-19-.9-.5-2.6-.5-4 0-2.4.9-2.4 1-1.8 11.7.7 12.5 3.4 42.6 4.5 49.6.8 5.5 2.6 7.2 6.7 6.2l2.8-.7-.6-12c-.5-9.1-.4-12.1.6-12.4 3.4-1.2 25.2-3.4 26-2.6.5.5 1.1 6.2 1.4 12.8.7 14-.2 16.7-7.6 23.6-7.1 6.7-14.1 9-27.6 9.1-7.4.1-12.1-.4-14.5-1.3-5.1-2.1-10.7-6.7-12.4-10.3-2.7-5.4-4.4-18.5-5.6-43.3-.9-20.5-.9-24.7.4-28.8 2.6-8.8 9.3-14.8 19.9-18.3 6.7-2.2 22.1-1.3 27.7 1.5zm-117.2 2.7c3.1.4 4.2 1 4.2 2.2.1 4.5 7.8 60.6 11.4 83.2.9 5.2 1.6 10.7 1.6 12.1v2.5l-13.2-.3c-7.3-.3-13.9-.6-14.5-.8-.9-.3-1.3-2.6-1.3-6.7 0-9.7-.4-10.5-5.7-11.2-2.6-.3-4.8-.4-5.1-.2-.2.3-.9 4.1-1.5 8.5l-1.1 8.1-7-.1c-7.6 0-22.4-1.4-23.1-2.1-.2-.2 1.8-9.4 4.5-20.3 2.7-11 7.7-32.2 11.1-47 3.4-14.9 6.3-27.6 6.5-28.3.3-.9 3.6-1.1 14.6-.7 7.9.3 16.2.8 18.6 1.1zm49.7 25.6c.4 13.9.9 28.2 1 31.8.1 3.6.3 10 .4 14.3l.1 7.8 8.3-.3 8.2-.3.6 9.5c.3 5.2.4 9.7.1 10-.6.8-42.9 2.3-44.7 1.6-1.3-.5-1.5-4.2-1.5-26.8 0-14.5.3-36.8.7-49.6l.6-23.2h25.5l.7 25.2z"/><path d="M798.2 90.8c-1.5 1.5-2.2 4.6-3.1 12.3-.6 5.7-1.7 14.8-2.3 20.3-1.1 9.2-1 10 .7 11.2 1 .8 2.2 1.4 2.7 1.4 2.1 0 3.8-5.8 5.3-18.5 3-25.7 3-26.1.7-27.4-1.8-.9-2.5-.8-4 .7zM627 92.5c-.8 1-1 2.8-.6 5.3.4 2 1.5 10.2 2.6 18.2 2.4 18.2 3 20 7 20 3.6 0 3.7-.5 1.5-17-.9-6.3-2-14.6-2.5-18.3-.5-3.8-1.4-7.5-2-8.3-1.6-1.8-4.4-1.8-6 .1zM916.8 116.7c-1.5 1.9-12.9 37.6-12.8 40.5 0 2.4 3.9 3.4 5.8 1.5 1.7-1.7 13.2-35.9 13.2-39.4 0-1.2-.9-2.7-1.9-3.3-2.5-1.3-2.5-1.3-4.3.7zM400.5 170.4c-1.8 1.3-1.8 1.5-.2 5.2 1 2.2 2.6 4.9 3.5 6.2 1.6 2.1 1.9 2.1 4 .7 2.6-1.9 2.8-4.4.6-8.8-2.6-4.9-4.6-5.8-7.9-3.3zM1066.7 195.7l-3.6 5.8 2.2 1.2c3.7 2.1 6.1 1.5 8.5-2 2.8-4.2 2.8-7.2 0-9.1-1.2-.9-2.5-1.6-2.8-1.6-.3 0-2.2 2.6-4.3 5.7zM1055.9 213.2c-.7 1.3-1.5 2.5-1.8 2.8-.3.3-1.5 2.1-2.5 4-1.1 1.9-2.4 3.8-2.9 4.1-1.4.9 3.8 4.1 6 3.7 2-.4 8.3-9.4 8.3-11.9 0-1.8-3-4.9-4.8-4.9-.6 0-1.7 1-2.3 2.2zM337.2 210.2c-2 2-1.5 3.6 3.4 10.6 12.8 18.9 19.2 26.7 21.4 26.7 1.3 0 2.8-.8 3.4-1.7 1.1-1.8-1.7-6.3-17.7-28.8-5.3-7.5-8-9.3-10.5-6.8zM286.7 255.8c-1 1-1.7 2.3-1.7 2.7 0 .5 2.3 3.3 5.2 6.2l5.1 5.2 1.9-2.4c2.5-3.2 2.3-4.2-1.8-9.1-3.8-4.8-6.2-5.4-8.7-2.6zM649.2 371.7l.3 41.8 3-.3c1.7-.2 3.8-1.2 4.8-2.4 1.5-1.8 1.7-5.3 1.7-39.8 0-35.2-.1-37.8-1.8-39.3-1-1-3.3-1.7-5-1.7H649l.2 41.7zM200.6 360.6c-.9.8-1.6 2.2-1.6 2.9 0 1.3 11.7 10.5 26.2 20.8 6.3 4.5 6.8 4.6 7.8 2.8 1.7-3.2 1.2-5.6-1.7-8.3-5.1-4.7-26.1-19.8-27.7-19.8-.8 0-2.2.7-3 1.6zM150.6 456.2c-2.6 3.7-1.9 5.2 3.9 8.1 3.1 1.5 5.7 2.7 5.9 2.7.3 0 1-1.5 1.6-3.4 1.3-4 .1-6.8-3.7-8.5-3.7-1.7-6-1.3-7.7 1.1zM172.1 466.9c-1.2 1.6-2.1 3.4-2.1 4 0 .6 3.2 2.7 7.2 4.7 6.8 3.4 7.2 3.5 8.5 1.8 1.4-2 1.7-5.3.5-7-.6-1-10.4-6.4-11.6-6.4-.3 0-1.4 1.3-2.5 2.9zM1320.5 579c-4.5 1.5-5 2-4.8 4.4.4 5.2 3.8 6.9 9.7 4.6 2.8-1 4.2-4.6 3.2-8.5-.7-2.9-1.3-2.9-8.1-.5zM1312.5 672.7c.4 3.2.9 6 1.1 6.2.4.5 21.6-6.9 22.9-8 .5-.6.3-.9-.5-.9s-6.2-.7-12-1.5-10.9-1.5-11.4-1.5c-.4 0-.5 2.6-.1 5.7zM541.7 1432c-3.3 8.6-10.7 29.5-10.7 30.5 0 1.5 6.8 3.7 7.5 2.4.9-1.4 4.7-30.9 4.2-32.7-.3-1.4-.5-1.5-1-.2zM860.3 1444c.4 3 .9 11.1 1.3 17.9l.7 12.3 4-.6c2.3-.4 4.3-.8 4.5-1 .5-.5-9.3-32.5-10.3-33.3-.4-.5-.5 1.7-.2 4.7zM607.5 1437.2c-.3 1.8-1.4 9.6-2.5 17.3-1.1 7.7-2.7 18.3-3.5 23.5-.8 5.2-1.7 11.6-2 14.2l-.6 4.8h3c2.1 0 3.4-.7 4.2-2.2 1.3-2.5 7.8-47.1 7.9-54 0-3.7-.4-5-1.9-5.8-3.1-1.6-4-1.2-4.6 2.2zM676.2 1458.5c-.6 3.8-1.9 11.6-2.8 17.2-1 5.7-1.6 10.5-1.3 10.7.2.2 2.1.7 4.3 1.1l3.8.8-.7-14.4c-.4-7.9-1-16.2-1.4-18.4-.7-4-.7-3.9-1.9 3z"/></svg>